#define 2_width 8
#define 2_height 12
static unsigned char 2_bits[] = {
   0x00, 0x3c, 0x42, 0x40, 0x40, 0x40, 0x20, 0x10, 0x08, 0x04, 0x7e, 0x00 };
