#define 3_width 8
#define 3_height 12
static unsigned char 3_bits[] = {
   0x00, 0x3c, 0x42, 0x40, 0x40, 0x30, 0x40, 0x40, 0x40, 0x42, 0x3c, 0x00 };
