#define 4_width 8
#define 4_height 12
static unsigned char 4_bits[] = {
   0x00, 0x20, 0x30, 0x28, 0x24, 0x7e, 0x20, 0x20, 0x20, 0x20, 0x20, 0x00 };
