#define 5_width 8
#define 5_height 12
static unsigned char 5_bits[] = {
   0x00, 0x7e, 0x02, 0x02, 0x02, 0x3e, 0x40, 0x40, 0x40, 0x40, 0x3e, 0x00 };
