#define 8_width 8
#define 8_height 12
static unsigned char 8_bits[] = {
   0x00, 0x3c, 0x42, 0x42, 0x42, 0x3c, 0x42, 0x42, 0x42, 0x42, 0x3c, 0x00 };
