#define 0_width 8
#define 0_height 12
static unsigned char 0_bits[] = {
   0x00, 0x18, 0x24, 0x62, 0x52, 0x52, 0x4a, 0x4a, 0x46, 0x24, 0x18, 0x00 };
