#define 1_width 8
#define 1_height 12
static unsigned char 1_bits[] = {
   0x00, 0x20, 0x30, 0x28, 0x20, 0x20, 0x20, 0x20, 0x20, 0x20, 0x20, 0x00 };
