#define 6_width 8
#define 6_height 12
static unsigned char 6_bits[] = {
   0x00, 0x38, 0x04, 0x02, 0x02, 0x3e, 0x42, 0x42, 0x42, 0x42, 0x3c, 0x00 };
