#define 7_width 8
#define 7_height 12
static unsigned char 7_bits[] = {
   0x00, 0x7e, 0x40, 0x20, 0x20, 0x10, 0x10, 0x08, 0x08, 0x04, 0x04, 0x00 };
