#define 9_width 8
#define 9_height 12
static unsigned char 9_bits[] = {
   0x00, 0x3c, 0x42, 0x42, 0x42, 0x42, 0x7c, 0x40, 0x40, 0x20, 0x1c, 0x00 };
