#define equals_width 8
#define equals_height 12
static unsigned char equals_bits[] = {
   0x00, 0x00, 0x00, 0x00, 0x00, 0x3e, 0x00, 0x3e, 0x00, 0x00, 0x00, 0x00 };
